<svg width="256" height="54" viewBox="0 0 256 54" fill="none" xmlns="http://www.w3.org/2000/svg">
<line x1="56" y1="46" x2="101" y2="46" stroke="#000000"/>
<g clip-path="url(#clip0_0_1)">
<path d="M134.333 41.0833H122.667C122.225 41.0833 121.801 41.2589 121.488 41.5715C121.176 41.8841 121 42.308 121 42.75V50.25C121 50.692 121.176 51.116 121.488 51.4285C121.801 51.7411 122.225 51.9167 122.667 51.9167H134.333C134.775 51.9167 135.199 51.7411 135.512 51.4285C135.824 51.116 136 50.692 136 50.25V42.75C136 42.308 135.824 41.8841 135.512 41.5715C135.199 41.2589 134.775 41.0833 134.333 41.0833V41.0833Z" fill="#DA251D"/>
<path d="M129.23 45.6821L128.5 43.4342L127.77 45.6821H125.406L127.318 47.0708L126.588 49.3188L128.5 47.9296L130.412 49.3188L129.682 47.0708L131.594 45.6821H129.23Z" fill="#FFFF00"/>
</g>
<line x1="156" y1="46" x2="201" y2="46" stroke="#000000"/>
<path d="M7.22295 26.144C6.95895 26.144 6.73095 26.108 6.53895 26.036C6.34695 25.988 6.25095 25.88 6.25095 25.712C6.25095 25.544 6.34695 25.412 6.53895 25.316C6.73095 25.196 6.99495 25.1 7.33095 25.028C8.24295 24.86 8.92695 24.584 9.38295 24.2C9.83895 23.816 10.067 23.204 10.067 22.364V8.108C10.067 7.052 10.043 6.26 9.99495 5.732C9.94695 5.18 9.87495 4.808 9.77895 4.616C9.68295 4.4 9.55095 4.268 9.38295 4.22C9.09495 4.148 8.77095 4.112 8.41095 4.112C8.05095 4.088 7.63095 4.076 7.15095 4.076H5.74695C5.12295 4.076 4.49895 4.22 3.87495 4.508C3.27495 4.772 2.81895 5.156 2.50695 5.66C2.41095 5.804 2.26695 6.008 2.07495 6.272C1.90695 6.512 1.71495 6.728 1.49895 6.92C1.28295 7.088 1.06695 7.172 0.850953 7.172C0.730953 7.172 0.634953 7.124 0.562953 7.028C0.514953 6.932 0.490953 6.812 0.490953 6.668C0.490953 6.404 0.562953 6.14 0.706953 5.876C1.09095 5.108 1.36695 4.436 1.53495 3.86C1.70295 3.284 1.83495 2.6 1.93095 1.808C1.97895 1.424 2.07495 1.184 2.21895 1.088C2.36295 0.991999 2.50695 0.943999 2.65095 0.943999C2.77095 0.943999 2.92695 1.1 3.11895 1.412C3.33495 1.7 3.50295 1.94 3.62295 2.132C3.81495 2.348 4.17495 2.516 4.70295 2.636C5.23095 2.756 5.72295 2.816 6.17895 2.816L19.175 2.78C19.919 2.78 20.531 2.732 21.011 2.636C21.515 2.54 21.923 2.42 22.235 2.276C22.571 2.108 22.835 1.928 23.027 1.736C23.219 1.52 23.471 1.412 23.783 1.412C23.879 1.412 23.951 1.496 23.999 1.664C24.047 1.808 24.071 1.976 24.071 2.168C24.071 2.264 24.059 2.408 24.035 2.6C24.011 2.792 23.987 2.948 23.963 3.068C23.867 3.524 23.771 3.884 23.675 4.148C23.603 4.412 23.543 4.664 23.495 4.904C23.471 5.12 23.459 5.408 23.459 5.768V6.272C23.459 6.56 23.411 6.836 23.315 7.1C23.219 7.364 23.075 7.496 22.883 7.496C22.691 7.496 22.535 7.376 22.415 7.136C22.295 6.872 22.175 6.5 22.055 6.02C21.911 5.396 21.587 4.916 21.083 4.58C20.603 4.244 19.799 4.076 18.671 4.076H15.647C15.167 4.076 14.795 4.16 14.531 4.328C14.267 4.472 14.087 4.832 13.991 5.408C13.919 5.96 13.883 6.86 13.883 8.108V22.364C13.883 23.18 14.111 23.78 14.567 24.164C15.047 24.548 15.743 24.836 16.655 25.028C16.991 25.1 17.243 25.184 17.411 25.28C17.603 25.376 17.699 25.52 17.699 25.712C17.699 25.856 17.615 25.964 17.447 26.036C17.279 26.108 17.051 26.144 16.763 26.144C16.163 26.144 15.611 26.12 15.107 26.072C14.603 26.048 14.111 26.024 13.631 26C13.151 25.976 12.647 25.964 12.119 25.964C11.543 25.964 11.003 25.976 10.499 26C9.99495 26.024 9.47895 26.048 8.95095 26.072C8.42295 26.12 7.84695 26.144 7.22295 26.144ZM28.8291 26.504C27.4611 26.504 26.2131 26.192 25.0851 25.568C23.9811 24.92 23.1051 24.044 22.4571 22.94C21.8091 21.836 21.4851 20.576 21.4851 19.16C21.4851 18.104 21.6891 17.084 22.0971 16.1C22.5051 15.116 23.0811 14.228 23.8251 13.436C24.5691 12.644 25.4331 12.02 26.4171 11.564C27.4011 11.084 28.4571 10.844 29.5851 10.844C31.0011 10.844 32.2851 11.192 33.4371 11.888C34.5891 12.56 35.5011 13.448 36.1731 14.552C36.8451 15.656 37.1811 16.868 37.1811 18.188C37.1811 19.628 36.8691 20.984 36.2451 22.256C35.6211 23.528 34.6851 24.56 33.4371 25.352C32.2131 26.12 30.6771 26.504 28.8291 26.504ZM29.5851 25.244C30.2811 25.244 30.9051 25.112 31.4571 24.848C32.0091 24.56 32.4411 24.128 32.7531 23.552C33.0411 23 33.2331 22.328 33.3291 21.536C33.4491 20.72 33.5091 19.892 33.5091 19.052C33.5091 17.852 33.3171 16.724 32.9331 15.668C32.5491 14.612 32.0211 13.76 31.3491 13.112C30.6771 12.464 29.8851 12.14 28.9731 12.14C28.4211 12.14 27.9171 12.236 27.4611 12.428C27.0291 12.596 26.6331 12.896 26.2731 13.328C25.8171 13.88 25.5171 14.6 25.3731 15.488C25.2291 16.352 25.1571 17.3 25.1571 18.332C25.1571 19.484 25.3491 20.588 25.7331 21.644C26.1171 22.7 26.6331 23.564 27.2811 24.236C27.9531 24.908 28.7211 25.244 29.5851 25.244ZM51.2228 26.72C51.0308 26.72 50.9348 26.612 50.9348 26.396C50.9348 26.132 50.9588 25.772 51.0068 25.316C51.0788 24.836 51.1148 24.452 51.1148 24.164C51.1148 24.092 51.1148 24.032 51.1148 23.984C51.1148 23.936 51.1148 23.9 51.1148 23.876C50.2748 24.74 49.3628 25.4 48.3788 25.856C47.4188 26.288 46.3748 26.504 45.2468 26.504C44.5028 26.504 43.8188 26.324 43.1948 25.964C42.5708 25.604 42.0788 25.088 41.7188 24.416C41.3828 23.72 41.2148 22.904 41.2148 21.968V14.84C41.2148 14.312 41.0948 13.892 40.8548 13.58C40.6388 13.244 40.2548 12.992 39.7028 12.824C39.5828 12.776 39.4628 12.716 39.3428 12.644C39.2468 12.548 39.1988 12.404 39.1988 12.212C39.1988 11.996 39.2468 11.852 39.3428 11.78C39.4628 11.684 39.5948 11.624 39.7388 11.6C40.6268 11.552 41.3588 11.48 41.9348 11.384C42.5108 11.264 43.1588 11.108 43.8788 10.916C43.9748 10.892 44.0588 10.88 44.1308 10.88C44.2028 10.856 44.2748 10.844 44.3468 10.844C44.6348 10.844 44.7668 11.012 44.7428 11.348C44.6708 11.9 44.6108 12.368 44.5628 12.752C44.5148 13.112 44.4908 13.568 44.4908 14.12V21.104C44.4908 21.68 44.6108 22.208 44.8508 22.688C45.1148 23.144 45.4628 23.516 45.8948 23.804C46.3268 24.092 46.7708 24.248 47.2268 24.272C47.7788 24.272 48.2708 24.236 48.7028 24.164C49.1348 24.068 49.5548 23.852 49.9628 23.516C50.1788 23.348 50.4428 23.06 50.7548 22.652C51.0908 22.244 51.2588 21.68 51.2588 20.96V14.66C51.2588 14.18 51.1268 13.82 50.8628 13.58C50.6228 13.316 50.3228 13.124 49.9628 13.004C49.6268 12.884 49.3148 12.812 49.0268 12.788C48.7868 12.788 48.5948 12.74 48.4508 12.644C48.3068 12.548 48.2348 12.38 48.2348 12.14C48.2348 11.9 48.3068 11.744 48.4508 11.672C48.6188 11.576 48.8108 11.528 49.0268 11.528C49.9388 11.48 50.6708 11.432 51.2228 11.384C51.7988 11.336 52.2908 11.276 52.6988 11.204C53.1308 11.132 53.5748 11.036 54.0308 10.916C54.0788 10.892 54.1388 10.88 54.2108 10.88C54.3068 10.856 54.3788 10.844 54.4268 10.844C54.7388 10.844 54.8948 10.976 54.8948 11.24C54.8948 11.288 54.8828 11.348 54.8588 11.42C54.8588 11.492 54.8468 11.564 54.8228 11.636C54.7988 11.732 54.7628 11.948 54.7148 12.284C54.6908 12.596 54.6548 12.932 54.6068 13.292C54.5828 13.652 54.5708 13.94 54.5708 14.156V22.472C54.5708 23.072 54.6308 23.504 54.7508 23.768C54.8948 24.008 55.0508 24.128 55.2188 24.128C55.3868 24.128 55.6268 24.116 55.9388 24.092C56.2748 24.068 56.5148 24.056 56.6588 24.056C56.8028 24.056 56.9348 24.092 57.0548 24.164C57.1748 24.236 57.2348 24.38 57.2348 24.596C57.2348 24.788 57.1868 24.932 57.0908 25.028C56.9948 25.1 56.8628 25.148 56.6948 25.172C55.6868 25.292 54.7988 25.484 54.0308 25.748C53.2628 26.012 52.5908 26.252 52.0148 26.468C51.9188 26.516 51.7868 26.564 51.6188 26.612C51.4748 26.684 51.3428 26.72 51.2228 26.72ZM59.2205 26.108C59.0045 26.108 58.8245 26.072 58.6805 26C58.5605 25.928 58.5005 25.82 58.5005 25.676C58.5005 25.484 58.5725 25.352 58.7165 25.28C58.8845 25.184 59.0885 25.1 59.3285 25.028C59.8325 24.908 60.1805 24.74 60.3725 24.524C60.5885 24.308 60.6965 24.02 60.6965 23.66V15.74C60.6965 15.14 60.6125 14.636 60.4445 14.228C60.2765 13.796 59.9165 13.52 59.3645 13.4C59.2685 13.376 59.1725 13.316 59.0765 13.22C59.0045 13.124 58.9685 13.004 58.9685 12.86C58.9685 12.596 59.0885 12.428 59.3285 12.356C60.0005 12.164 60.7205 11.9 61.4885 11.564C62.2565 11.204 62.8805 10.892 63.3605 10.628C63.5045 10.532 63.6365 10.46 63.7565 10.412C63.8765 10.364 63.9605 10.34 64.0085 10.34C64.1765 10.34 64.2605 10.436 64.2605 10.628C64.2605 10.724 64.2485 10.928 64.2245 11.24C64.2245 11.552 64.2125 11.9 64.1885 12.284C64.1645 12.668 64.1525 13.04 64.1525 13.4C64.1525 13.496 64.1765 13.544 64.2245 13.544C64.6085 13.064 65.0285 12.62 65.4845 12.212C65.9645 11.804 66.4685 11.48 66.9965 11.24C67.5245 10.976 68.0285 10.844 68.5085 10.844C69.1325 10.844 69.6125 10.976 69.9485 11.24C70.2845 11.48 70.4525 11.804 70.4525 12.212C70.4525 12.476 70.3685 12.788 70.2005 13.148C70.0565 13.484 69.8525 13.784 69.5885 14.048C69.3485 14.288 69.0845 14.408 68.7965 14.408C68.6285 14.408 68.4485 14.372 68.2565 14.3C68.0645 14.204 67.8605 14.108 67.6445 14.012C67.4525 13.916 67.2485 13.832 67.0325 13.76C66.8405 13.664 66.6485 13.616 66.4565 13.616C65.8565 13.616 65.3045 13.832 64.8005 14.264C64.2965 14.696 64.0445 15.536 64.0445 16.784V23.552C64.0445 23.936 64.2005 24.236 64.5125 24.452C64.8245 24.668 65.2925 24.872 65.9165 25.064C66.1805 25.136 66.3845 25.22 66.5285 25.316C66.6725 25.388 66.7445 25.508 66.7445 25.676C66.7445 25.964 66.5165 26.108 66.0605 26.108C65.3405 26.108 64.7165 26.072 64.1885 26C63.6845 25.952 63.1205 25.928 62.4965 25.928C62.0885 25.928 61.7285 25.94 61.4165 25.964C61.1045 25.988 60.7805 26.012 60.4445 26.036C60.1085 26.084 59.7005 26.108 59.2205 26.108ZM80.1474 26.504C79.5474 26.504 78.9714 26.444 78.4194 26.324C77.8674 26.228 77.3514 26.12 76.8714 26C76.4154 25.88 76.0074 25.772 75.6474 25.676C75.2874 25.556 75.0354 25.496 74.8914 25.496C74.6994 25.496 74.5194 25.544 74.3514 25.64C74.2074 25.736 74.0634 25.844 73.9194 25.964C73.7514 26.108 73.6194 26.18 73.5234 26.18C73.3794 26.18 73.2474 26.132 73.1274 26.036C73.0074 25.94 72.9474 25.832 72.9474 25.712C72.9474 25.496 72.9954 25.112 73.0914 24.56C73.2114 24.008 73.2714 23.42 73.2714 22.796L73.1994 5.84C73.1994 5.216 73.0674 4.676 72.8034 4.22C72.5394 3.74 72.1554 3.404 71.6514 3.212C71.5314 3.164 71.4234 3.104 71.3274 3.032C71.2314 2.936 71.1834 2.816 71.1834 2.672C71.1834 2.552 71.2194 2.456 71.2914 2.384C71.3874 2.312 71.4954 2.264 71.6154 2.24C71.9994 2.168 72.4914 2.036 73.0914 1.844C73.6914 1.628 74.2554 1.412 74.7834 1.196C75.3354 0.98 75.7314 0.823999 75.9714 0.727999C76.1394 0.655999 76.2594 0.619998 76.3314 0.619998C76.4274 0.619998 76.4994 0.655999 76.5474 0.727999C76.5954 0.775999 76.6194 0.847998 76.6194 0.943999C76.6194 1.064 76.5954 1.436 76.5474 2.06C76.5234 2.66 76.5114 3.368 76.5114 4.184L76.4754 11.672C76.4754 12.08 76.4994 12.368 76.5474 12.536C76.6194 12.704 76.7034 12.788 76.7994 12.788C77.5434 12.212 78.3714 11.756 79.2834 11.42C80.2194 11.06 81.0714 10.88 81.8394 10.88C83.0634 10.88 84.1674 11.192 85.1514 11.816C86.1354 12.44 86.9154 13.304 87.4914 14.408C88.0914 15.488 88.3914 16.712 88.3914 18.08C88.3914 19.736 88.0434 21.2 87.3474 22.472C86.6514 23.744 85.6794 24.74 84.4314 25.46C83.2074 26.156 81.7794 26.504 80.1474 26.504ZM80.9034 25.244C81.7194 25.244 82.4154 24.968 82.9914 24.416C83.5914 23.84 84.0474 23.072 84.3594 22.112C84.6954 21.152 84.8634 20.096 84.8634 18.944C84.8634 17.984 84.7074 17.012 84.3954 16.028C84.0834 15.044 83.5914 14.228 82.9194 13.58C82.2474 12.908 81.3954 12.572 80.3634 12.572C79.5954 12.572 78.8754 12.692 78.2034 12.932C77.5314 13.172 76.9554 13.496 76.4754 13.904V21.14C76.4754 21.956 76.6794 22.676 77.0874 23.3C77.5194 23.924 78.0714 24.404 78.7434 24.74C79.4394 25.076 80.1594 25.244 80.9034 25.244ZM97.9815 26.504C96.6135 26.504 95.3655 26.192 94.2375 25.568C93.1335 24.92 92.2575 24.044 91.6095 22.94C90.9615 21.836 90.6375 20.576 90.6375 19.16C90.6375 18.104 90.8415 17.084 91.2495 16.1C91.6575 15.116 92.2335 14.228 92.9775 13.436C93.7215 12.644 94.5855 12.02 95.5695 11.564C96.5535 11.084 97.6095 10.844 98.7375 10.844C100.153 10.844 101.437 11.192 102.589 11.888C103.741 12.56 104.653 13.448 105.325 14.552C105.997 15.656 106.333 16.868 106.333 18.188C106.333 19.628 106.021 20.984 105.397 22.256C104.773 23.528 103.837 24.56 102.589 25.352C101.365 26.12 99.8295 26.504 97.9815 26.504ZM98.7375 25.244C99.4335 25.244 100.057 25.112 100.609 24.848C101.161 24.56 101.593 24.128 101.905 23.552C102.193 23 102.385 22.328 102.481 21.536C102.601 20.72 102.661 19.892 102.661 19.052C102.661 17.852 102.469 16.724 102.085 15.668C101.701 14.612 101.173 13.76 100.501 13.112C99.8295 12.464 99.0375 12.14 98.1255 12.14C97.5735 12.14 97.0695 12.236 96.6135 12.428C96.1815 12.596 95.7855 12.896 95.4255 13.328C94.9695 13.88 94.6695 14.6 94.5255 15.488C94.3815 16.352 94.3095 17.3 94.3095 18.332C94.3095 19.484 94.5015 20.588 94.8855 21.644C95.2695 22.7 95.7855 23.564 96.4335 24.236C97.1055 24.908 97.8735 25.244 98.7375 25.244ZM115.911 26.504C114.543 26.504 113.295 26.192 112.167 25.568C111.063 24.92 110.187 24.044 109.539 22.94C108.891 21.836 108.567 20.576 108.567 19.16C108.567 18.104 108.771 17.084 109.179 16.1C109.587 15.116 110.163 14.228 110.907 13.436C111.651 12.644 112.515 12.02 113.499 11.564C114.483 11.084 115.539 10.844 116.667 10.844C118.083 10.844 119.367 11.192 120.519 11.888C121.671 12.56 122.583 13.448 123.255 14.552C123.927 15.656 124.263 16.868 124.263 18.188C124.263 19.628 123.951 20.984 123.327 22.256C122.703 23.528 121.767 24.56 120.519 25.352C119.295 26.12 117.759 26.504 115.911 26.504ZM116.667 25.244C117.363 25.244 117.987 25.112 118.539 24.848C119.091 24.56 119.523 24.128 119.835 23.552C120.123 23 120.315 22.328 120.411 21.536C120.531 20.72 120.591 19.892 120.591 19.052C120.591 17.852 120.399 16.724 120.015 15.668C119.631 14.612 119.103 13.76 118.431 13.112C117.759 12.464 116.967 12.14 116.055 12.14C115.503 12.14 114.999 12.236 114.543 12.428C114.111 12.596 113.715 12.896 113.355 13.328C112.899 13.88 112.599 14.6 112.455 15.488C112.311 16.352 112.239 17.3 112.239 18.332C112.239 19.484 112.431 20.588 112.815 21.644C113.199 22.7 113.715 23.564 114.363 24.236C115.035 24.908 115.803 25.244 116.667 25.244ZM126.294 26.108C125.766 26.108 125.502 25.964 125.502 25.676C125.502 25.484 125.586 25.352 125.754 25.28C125.922 25.208 126.114 25.124 126.33 25.028C126.69 24.908 127.026 24.764 127.338 24.596C127.65 24.428 127.806 24.092 127.806 23.588V5.84C127.806 5.048 127.698 4.448 127.482 4.04C127.266 3.632 126.858 3.356 126.258 3.212C126.042 3.164 125.934 2.996 125.934 2.708C125.934 2.444 126.03 2.288 126.222 2.24C126.846 2.12 127.422 1.964 127.95 1.772C128.502 1.58 129.006 1.4 129.462 1.232C129.942 1.04 130.362 0.871999 130.722 0.727999C130.89 0.655999 131.022 0.619998 131.118 0.619998C131.214 0.619998 131.274 0.655999 131.298 0.727999C131.346 0.775999 131.37 0.859998 131.37 0.979998C131.37 1.196 131.322 1.616 131.226 2.24C131.154 2.864 131.118 3.776 131.118 4.976V17.36C131.118 17.6 131.19 17.72 131.334 17.72C131.454 17.72 131.61 17.672 131.802 17.576C131.994 17.48 132.186 17.348 132.378 17.18C133.338 16.364 134.154 15.596 134.826 14.876C135.498 14.156 135.954 13.64 136.194 13.328C136.29 13.184 136.362 13.076 136.41 13.004C136.482 12.908 136.518 12.824 136.518 12.752C136.518 12.632 136.41 12.524 136.194 12.428C136.002 12.308 135.774 12.224 135.51 12.176C135.222 12.128 135.078 12.008 135.078 11.816C135.078 11.672 135.15 11.564 135.294 11.492C135.462 11.396 135.654 11.348 135.87 11.348H137.634C138.018 11.348 138.462 11.324 138.966 11.276C139.494 11.204 139.998 11.132 140.478 11.06C140.958 10.988 141.318 10.952 141.558 10.952C141.87 10.952 142.026 11.084 142.026 11.348C142.026 11.492 141.942 11.624 141.774 11.744C141.63 11.864 141.426 11.96 141.162 12.032C140.73 12.128 140.286 12.296 139.83 12.536C139.374 12.752 138.942 12.98 138.534 13.22C138.294 13.364 137.922 13.628 137.418 14.012C136.914 14.396 136.374 14.828 135.798 15.308C135.222 15.788 134.682 16.256 134.178 16.712C134.034 16.832 133.962 16.952 133.962 17.072C133.962 17.12 133.974 17.168 133.998 17.216C134.046 17.264 134.082 17.312 134.106 17.36C134.73 18.128 135.366 18.896 136.014 19.664C136.662 20.432 137.274 21.128 137.85 21.752C138.426 22.376 138.894 22.88 139.254 23.264C139.662 23.672 140.13 24.032 140.658 24.344C141.21 24.656 141.666 24.884 142.026 25.028C142.266 25.1 142.494 25.184 142.71 25.28C142.95 25.352 143.07 25.484 143.07 25.676C143.07 25.964 142.83 26.108 142.35 26.108C141.222 26.108 140.034 26.084 138.786 26.036C137.562 26.012 136.338 26 135.114 26C134.658 26 134.43 25.868 134.43 25.604C134.43 25.46 134.49 25.34 134.61 25.244C134.754 25.124 134.922 25.04 135.114 24.992C135.354 24.896 135.546 24.8 135.69 24.704C135.858 24.584 135.942 24.428 135.942 24.236C135.942 24.164 135.918 24.08 135.87 23.984C135.822 23.888 135.75 23.78 135.654 23.66L131.586 18.764C131.49 18.62 131.394 18.548 131.298 18.548C131.178 18.572 131.118 18.656 131.118 18.8C131.094 19.16 131.082 19.532 131.082 19.916C131.082 20.3 131.082 20.696 131.082 21.104C131.082 21.488 131.082 21.908 131.082 22.364C131.082 22.796 131.094 23.216 131.118 23.624C131.118 24.056 131.226 24.368 131.442 24.56C131.658 24.752 131.946 24.908 132.306 25.028C132.498 25.1 132.678 25.184 132.846 25.28C133.014 25.352 133.098 25.484 133.098 25.676C133.098 25.844 133.002 25.952 132.81 26C132.618 26.072 132.462 26.108 132.342 26.108C131.886 26.108 131.514 26.084 131.226 26.036C130.938 26.012 130.674 25.988 130.434 25.964C130.194 25.94 129.858 25.928 129.426 25.928C129.018 25.928 128.67 25.94 128.382 25.964C128.094 25.988 127.794 26.012 127.482 26.036C127.17 26.084 126.774 26.108 126.294 26.108ZM144.225 26.108C144.033 26.108 143.865 26.072 143.721 26C143.601 25.928 143.541 25.82 143.541 25.676C143.541 25.484 143.613 25.352 143.757 25.28C143.925 25.184 144.105 25.112 144.297 25.064C144.849 24.92 145.257 24.764 145.521 24.596C145.785 24.428 145.917 24.128 145.917 23.696V15.92C145.917 15.2 145.797 14.624 145.557 14.192C145.317 13.736 144.897 13.46 144.297 13.364C144.177 13.34 144.081 13.292 144.009 13.22C143.961 13.124 143.937 12.992 143.937 12.824C143.937 12.536 144.045 12.38 144.261 12.356C145.317 12.116 146.217 11.804 146.961 11.42C147.729 11.012 148.305 10.688 148.689 10.448C148.953 10.28 149.145 10.196 149.265 10.196C149.457 10.196 149.553 10.292 149.553 10.484C149.553 10.748 149.517 11.168 149.445 11.744C149.397 12.32 149.337 12.944 149.265 13.616C149.217 14.288 149.193 14.912 149.193 15.488V23.696C149.193 24.08 149.325 24.368 149.589 24.56C149.853 24.752 150.261 24.92 150.813 25.064C151.005 25.112 151.173 25.184 151.317 25.28C151.485 25.352 151.569 25.484 151.569 25.676C151.569 25.964 151.353 26.108 150.921 26.108C150.465 26.108 150.057 26.084 149.697 26.036C149.337 26.012 148.989 25.988 148.653 25.964C148.341 25.94 147.969 25.928 147.537 25.928C147.129 25.928 146.757 25.94 146.421 25.964C146.085 25.988 145.749 26.012 145.413 26.036C145.101 26.084 144.705 26.108 144.225 26.108ZM147.465 7.712C146.865 7.712 146.349 7.508 145.917 7.1C145.509 6.668 145.305 6.152 145.305 5.552C145.305 4.928 145.509 4.412 145.917 4.004C146.349 3.572 146.865 3.356 147.465 3.356C148.089 3.356 148.617 3.572 149.049 4.004C149.481 4.412 149.697 4.928 149.697 5.552C149.697 6.152 149.481 6.668 149.049 7.1C148.617 7.508 148.089 7.712 147.465 7.712ZM153.718 26.108C153.526 26.108 153.358 26.072 153.214 26C153.07 25.928 152.998 25.82 152.998 25.676C152.998 25.484 153.07 25.352 153.214 25.28C153.382 25.184 153.586 25.1 153.826 25.028C154.186 24.932 154.522 24.8 154.834 24.632C155.146 24.464 155.302 24.14 155.302 23.66V15.74C155.302 15.14 155.23 14.636 155.086 14.228C154.966 13.796 154.618 13.508 154.042 13.364C153.946 13.34 153.862 13.292 153.79 13.22C153.718 13.124 153.682 13.004 153.682 12.86C153.682 12.548 153.79 12.38 154.006 12.356C154.846 12.14 155.602 11.876 156.274 11.564C156.97 11.252 157.606 10.904 158.182 10.52C158.254 10.472 158.326 10.424 158.398 10.376C158.494 10.328 158.578 10.304 158.65 10.304C158.746 10.304 158.806 10.34 158.83 10.412C158.878 10.46 158.902 10.532 158.902 10.628C158.902 10.796 158.866 11.12 158.794 11.6C158.746 12.08 158.722 12.488 158.722 12.824C158.722 12.92 158.722 13.016 158.722 13.112C158.746 13.208 158.77 13.268 158.794 13.292C159.634 12.5 160.498 11.9 161.386 11.492C162.298 11.084 163.318 10.88 164.446 10.88C165.646 10.88 166.642 11.348 167.434 12.284C168.226 13.22 168.622 14.432 168.622 15.92V23.696C168.622 24.176 168.778 24.488 169.09 24.632C169.426 24.776 169.774 24.908 170.134 25.028C170.326 25.1 170.506 25.184 170.674 25.28C170.842 25.376 170.926 25.52 170.926 25.712C170.926 25.88 170.842 25.988 170.674 26.036C170.53 26.084 170.386 26.108 170.242 26.108C169.762 26.108 169.354 26.084 169.018 26.036C168.706 26.012 168.394 25.988 168.082 25.964C167.794 25.94 167.434 25.928 167.002 25.928C166.594 25.928 166.234 25.94 165.922 25.964C165.61 25.988 165.286 26.012 164.95 26.036C164.638 26.084 164.242 26.108 163.762 26.108C163.642 26.108 163.498 26.084 163.33 26.036C163.162 25.988 163.078 25.88 163.078 25.712C163.078 25.52 163.162 25.376 163.33 25.28C163.498 25.184 163.678 25.1 163.87 25.028C164.23 24.908 164.566 24.776 164.878 24.632C165.19 24.488 165.346 24.176 165.346 23.696V16.244C165.346 15.236 165.07 14.456 164.518 13.904C163.99 13.352 163.294 13.064 162.43 13.04C161.686 13.04 161.026 13.16 160.45 13.4C159.898 13.616 159.382 13.916 158.902 14.3C158.806 14.396 158.734 14.516 158.686 14.66C158.638 14.804 158.614 14.936 158.614 15.056V23.696C158.614 24.176 158.77 24.5 159.082 24.668C159.394 24.812 159.718 24.932 160.054 25.028C160.582 25.196 160.846 25.412 160.846 25.676C160.846 25.82 160.786 25.928 160.666 26C160.546 26.072 160.378 26.108 160.162 26.108C159.682 26.108 159.274 26.084 158.938 26.036C158.626 26.012 158.326 25.988 158.038 25.964C157.774 25.94 157.426 25.928 156.994 25.928C156.586 25.928 156.226 25.94 155.914 25.964C155.602 25.988 155.278 26.012 154.942 26.036C154.606 26.084 154.198 26.108 153.718 26.108ZM178.918 36.44C176.782 36.44 175.09 36.056 173.842 35.288C172.618 34.52 172.006 33.488 172.006 32.192C172.006 31.52 172.102 30.968 172.294 30.536C172.486 30.104 172.81 29.708 173.266 29.348C173.65 29.06 174.094 28.712 174.598 28.304C175.126 27.896 175.642 27.5 176.146 27.116L177.766 27.368C176.734 27.992 176.002 28.604 175.57 29.204C175.138 29.828 174.922 30.572 174.922 31.436C174.922 32.42 175.342 33.236 176.182 33.884C177.022 34.532 178.066 34.856 179.314 34.856C180.826 34.856 181.978 34.532 182.77 33.884C183.322 33.452 183.742 32.9 184.03 32.228C184.342 31.556 184.498 30.86 184.498 30.14C184.498 29.66 184.33 29.264 183.994 28.952C183.658 28.64 183.118 28.388 182.374 28.196C181.63 28.004 180.622 27.86 179.35 27.764C177.022 27.572 175.39 27.212 174.454 26.684C173.518 26.156 173.05 25.4 173.05 24.416C173.05 24.176 173.11 23.948 173.23 23.732C173.374 23.516 173.602 23.288 173.914 23.048C174.394 22.664 174.778 22.364 175.066 22.148C175.354 21.932 175.57 21.752 175.714 21.608C175.882 21.44 176.026 21.248 176.146 21.032L177.55 21.644C177.046 21.836 176.626 22.088 176.29 22.4C175.954 22.712 175.786 22.988 175.786 23.228C175.786 23.54 175.954 23.816 176.29 24.056C176.626 24.272 177.154 24.44 177.874 24.56C178.594 24.68 179.506 24.788 180.61 24.884C182.962 25.028 184.69 25.4 185.794 26C186.898 26.6 187.45 27.452 187.45 28.556C187.45 29.516 187.198 30.452 186.694 31.364C186.214 32.3 185.566 33.152 184.75 33.92C183.934 34.688 183.022 35.3 182.014 35.756C181.006 36.212 179.974 36.44 178.918 36.44ZM179.386 20.924C180.25 20.924 180.946 20.48 181.474 19.592C182.026 18.704 182.302 17.564 182.302 16.172C182.302 15.404 182.158 14.708 181.87 14.084C181.582 13.46 181.198 12.968 180.718 12.608C180.262 12.224 179.746 12.032 179.17 12.032C178.642 12.032 178.15 12.224 177.694 12.608C177.238 12.992 176.878 13.508 176.614 14.156C176.35 14.78 176.218 15.476 176.218 16.244C176.218 17.108 176.35 17.9 176.614 18.62C176.902 19.316 177.286 19.88 177.766 20.312C178.27 20.72 178.81 20.924 179.386 20.924ZM179.098 22.292C178.09 22.292 177.118 22.04 176.182 21.536C175.246 21.032 174.478 20.36 173.878 19.52C173.278 18.656 172.978 17.708 172.978 16.676C172.978 15.5 173.29 14.48 173.914 13.616C174.538 12.728 175.354 12.044 176.362 11.564C177.394 11.06 178.474 10.808 179.602 10.808C180.322 10.808 180.958 10.904 181.51 11.096C182.086 11.264 182.674 11.408 183.274 11.528C183.826 11.672 184.282 11.768 184.642 11.816C185.026 11.84 185.434 11.852 185.866 11.852C186.178 11.852 186.538 11.84 186.946 11.816C187.354 11.768 187.654 11.744 187.846 11.744C188.182 11.744 188.35 11.96 188.35 12.392C188.35 12.704 188.218 13.004 187.954 13.292C187.81 13.436 187.69 13.508 187.594 13.508H186.622C185.998 13.508 185.626 13.604 185.506 13.796C185.458 13.868 185.41 13.976 185.362 14.12C185.338 14.24 185.314 14.408 185.29 14.624C185.29 14.84 185.29 15.116 185.29 15.452C185.29 16.7 185.002 17.84 184.426 18.872C183.85 19.904 183.094 20.732 182.158 21.356C181.246 21.98 180.226 22.292 179.098 22.292ZM192.383 26.72C191.759 26.72 191.219 26.492 190.763 26.036C190.307 25.58 190.079 25.04 190.079 24.416C190.079 23.744 190.307 23.192 190.763 22.76C191.219 22.304 191.759 22.076 192.383 22.076C193.031 22.076 193.571 22.304 194.003 22.76C194.459 23.192 194.687 23.744 194.687 24.416C194.687 25.04 194.459 25.58 194.003 26.036C193.571 26.492 193.031 26.72 192.383 26.72ZM203.501 26.54C202.277 26.54 201.173 26.228 200.189 25.604C199.205 24.956 198.425 24.08 197.849 22.976C197.273 21.872 196.985 20.636 196.985 19.268C196.985 17.708 197.333 16.292 198.029 15.02C198.725 13.748 199.661 12.74 200.837 11.996C202.013 11.252 203.309 10.88 204.725 10.88C206.429 10.88 207.893 11.372 209.117 12.356C209.381 12.596 209.513 12.824 209.513 13.04C209.513 13.208 209.417 13.424 209.225 13.688C209.057 13.928 208.841 14.144 208.577 14.336C208.337 14.504 208.109 14.588 207.893 14.588C207.749 14.588 207.593 14.54 207.425 14.444C207.281 14.348 207.137 14.24 206.993 14.12C206.417 13.664 205.805 13.268 205.157 12.932C204.533 12.572 203.993 12.392 203.537 12.392C202.457 12.392 201.593 12.884 200.945 13.868C200.321 14.828 200.009 16.184 200.009 17.936C200.009 19.088 200.225 20.108 200.657 20.996C201.113 21.884 201.725 22.58 202.493 23.084C203.285 23.588 204.185 23.84 205.193 23.84C205.889 23.84 206.489 23.732 206.993 23.516C207.521 23.276 208.073 22.88 208.649 22.328C208.721 22.28 208.793 22.232 208.865 22.184C208.961 22.136 209.045 22.112 209.117 22.112C209.381 22.112 209.513 22.292 209.513 22.652C209.513 22.772 209.477 22.928 209.405 23.12C209.333 23.288 209.225 23.48 209.081 23.696C208.745 24.176 208.301 24.644 207.749 25.1C207.197 25.532 206.561 25.88 205.841 26.144C205.121 26.408 204.341 26.54 203.501 26.54ZM218.532 26.504C217.164 26.504 215.916 26.192 214.788 25.568C213.684 24.92 212.808 24.044 212.16 22.94C211.512 21.836 211.188 20.576 211.188 19.16C211.188 18.104 211.392 17.084 211.8 16.1C212.208 15.116 212.784 14.228 213.528 13.436C214.272 12.644 215.136 12.02 216.12 11.564C217.104 11.084 218.16 10.844 219.288 10.844C220.704 10.844 221.988 11.192 223.14 11.888C224.292 12.56 225.204 13.448 225.876 14.552C226.548 15.656 226.884 16.868 226.884 18.188C226.884 19.628 226.572 20.984 225.948 22.256C225.324 23.528 224.388 24.56 223.14 25.352C221.916 26.12 220.38 26.504 218.532 26.504ZM219.288 25.244C219.984 25.244 220.608 25.112 221.16 24.848C221.712 24.56 222.144 24.128 222.456 23.552C222.744 23 222.936 22.328 223.032 21.536C223.152 20.72 223.212 19.892 223.212 19.052C223.212 17.852 223.02 16.724 222.636 15.668C222.252 14.612 221.724 13.76 221.052 13.112C220.38 12.464 219.588 12.14 218.676 12.14C218.124 12.14 217.62 12.236 217.164 12.428C216.732 12.596 216.336 12.896 215.976 13.328C215.52 13.88 215.22 14.6 215.076 15.488C214.932 16.352 214.86 17.3 214.86 18.332C214.86 19.484 215.052 20.588 215.436 21.644C215.82 22.7 216.336 23.564 216.984 24.236C217.656 24.908 218.424 25.244 219.288 25.244ZM229.55 26.108C229.358 26.108 229.19 26.072 229.046 26C228.902 25.952 228.83 25.844 228.83 25.676C228.83 25.508 228.902 25.376 229.046 25.28C229.214 25.184 229.418 25.1 229.658 25.028C229.994 24.908 230.318 24.776 230.63 24.632C230.966 24.464 231.134 24.14 231.134 23.66V15.74C231.134 15.14 231.062 14.624 230.918 14.192C230.774 13.736 230.426 13.46 229.874 13.364C229.778 13.34 229.694 13.292 229.622 13.22C229.55 13.148 229.514 13.028 229.514 12.86C229.514 12.572 229.622 12.404 229.838 12.356C230.462 12.188 231.014 12.008 231.494 11.816C231.974 11.624 232.418 11.42 232.826 11.204C233.234 10.964 233.666 10.712 234.122 10.448C234.17 10.424 234.218 10.4 234.266 10.376C234.338 10.328 234.41 10.304 234.482 10.304C234.65 10.304 234.734 10.4 234.734 10.592C234.734 10.784 234.698 11.132 234.626 11.636C234.578 12.116 234.554 12.524 234.554 12.86C234.554 13.1 234.578 13.244 234.626 13.292H234.698C235.298 12.692 236.042 12.14 236.93 11.636C237.842 11.132 238.934 10.88 240.206 10.88C241.022 10.88 241.73 11.096 242.33 11.528C242.93 11.936 243.41 12.584 243.77 13.472H243.878C244.622 12.704 245.474 12.08 246.434 11.6C247.394 11.12 248.45 10.88 249.602 10.88C250.394 10.88 251.066 11.108 251.618 11.564C252.17 12.02 252.59 12.632 252.878 13.4C253.19 14.168 253.346 15.008 253.346 15.92V23.696C253.346 24.176 253.502 24.488 253.814 24.632C254.126 24.776 254.462 24.908 254.822 25.028C255.062 25.1 255.254 25.184 255.398 25.28C255.542 25.376 255.614 25.508 255.614 25.676C255.614 25.82 255.554 25.928 255.434 26C255.338 26.072 255.17 26.108 254.93 26.108C254.45 26.108 254.054 26.084 253.742 26.036C253.43 26.012 253.13 25.988 252.842 25.964C252.554 25.94 252.194 25.928 251.762 25.928C251.354 25.928 250.994 25.94 250.682 25.964C250.394 25.988 250.094 26.012 249.782 26.036C249.47 26.084 249.074 26.108 248.594 26.108C248.402 26.108 248.234 26.072 248.09 26C247.97 25.928 247.91 25.82 247.91 25.676C247.91 25.484 247.982 25.352 248.126 25.28C248.27 25.184 248.462 25.1 248.702 25.028C249.062 24.932 249.374 24.812 249.638 24.668C249.902 24.5 250.034 24.2 250.034 23.768V16.244C250.034 15.668 249.914 15.14 249.674 14.66C249.458 14.156 249.158 13.76 248.774 13.472C248.39 13.16 247.958 13.004 247.478 13.004C246.974 13.004 246.494 13.076 246.038 13.22C245.582 13.364 245.138 13.604 244.706 13.94C244.154 14.372 243.878 15.104 243.878 16.136V23.696C243.878 24.176 244.022 24.5 244.31 24.668C244.622 24.812 244.958 24.932 245.318 25.028C245.534 25.1 245.714 25.184 245.858 25.28C246.026 25.376 246.11 25.508 246.11 25.676C246.11 25.82 246.05 25.928 245.93 26C245.81 26.072 245.642 26.108 245.426 26.108C244.946 26.108 244.55 26.084 244.238 26.036C243.926 26.012 243.626 25.988 243.338 25.964C243.05 25.94 242.69 25.928 242.258 25.928C241.85 25.928 241.49 25.94 241.178 25.964C240.89 25.988 240.59 26.012 240.278 26.036C239.966 26.084 239.57 26.108 239.09 26.108C238.922 26.108 238.766 26.072 238.622 26C238.478 25.928 238.406 25.82 238.406 25.676C238.406 25.484 238.49 25.352 238.658 25.28C238.826 25.184 239.006 25.1 239.198 25.028C239.558 24.932 239.87 24.812 240.134 24.668C240.422 24.5 240.566 24.2 240.566 23.768V16.244C240.566 15.668 240.446 15.14 240.206 14.66C239.99 14.18 239.69 13.784 239.306 13.472C238.922 13.16 238.49 13.004 238.01 13.004C237.53 13.004 237.05 13.076 236.57 13.22C236.114 13.364 235.67 13.604 235.238 13.94C234.71 14.324 234.446 15.044 234.446 16.1V23.696C234.446 24.152 234.578 24.464 234.842 24.632C235.106 24.776 235.418 24.908 235.778 25.028C235.97 25.1 236.15 25.184 236.318 25.28C236.486 25.352 236.57 25.484 236.57 25.676C236.57 25.82 236.498 25.928 236.354 26C236.234 26.072 236.078 26.108 235.886 26.108C235.406 26.108 235.01 26.084 234.698 26.036C234.386 26.012 234.098 25.988 233.834 25.964C233.57 25.94 233.222 25.928 232.79 25.928C232.382 25.928 232.022 25.94 231.71 25.964C231.398 25.988 231.074 26.012 230.738 26.036C230.426 26.084 230.03 26.108 229.55 26.108Z" fill="#000000"/>
<defs>
<clipPath id="clip0_0_1">
<rect width="15" height="15" fill="#000000" transform="translate(121 39)"/>
</clipPath>
</defs>
</svg>
